<?xml version="1.0" standalone="no"?><!DOCTYPE svg PUBLIC "-//W3C//DTD SVG 1.1//EN" "http://www.w3.org/Graphics/SVG/1.1/DTD/svg11.dtd"><svg t="1527129654736" class="icon" style="" viewBox="0 0 1024 1024" version="1.1" xmlns="http://www.w3.org/2000/svg" p-id="1948" xmlns:xlink="http://www.w3.org/1999/xlink" width="32" height="32"><defs><style type="text/css"></style></defs><path d="M521.165 55.165C269.267 55.165 64.33 260.102 64.33 512c0 251.898 204.937 456.835 456.835 456.835C773.063 968.835 978 763.898 978 512c0-251.898-204.937-456.835-456.835-456.835zM260.792 844.946c73.512-59.267 213.423-88.631 214.93-88.94l16.061-3.313-12.193-72.285-4.299-3.942c-52.854-48.514-109.237-116.233-109.237-306.828 0-90.969 68.401-143.798 135.963-148.97 57.063-4.216 128.842 27.191 144.62 129.647 28.037 246.188-88.703 323.527-89.798 324.224l-8.051 4.981v76.833h45.251c70.287 12.74 151.038 65.376 185.775 89.931-71.547 55.485-161.307 88.554-258.649 88.554-98.124 0-188.547-33.599-260.373-89.892z m545.868-21.312c-31.98-23.308-124.666-86.495-208.214-101.028l-15.662-0.249v-24.71c29.15-23.049 124.252-117.437 97.542-351.838-19.389-126.111-109.635-164.408-180.899-159.038-81.141 6.209-167.371 72.41-167.371 182.867 0 180.152 46.165 262.307 115.935 327.877l4.864 28.826c-41.608 10.051-153.353 40.946-218.326 96.244C150.827 745.278 98.327 634.657 98.327 512c0-233.156 189.681-422.837 422.838-422.837 233.156 0 422.838 189.681 422.838 422.837 0 123.213-52.977 234.28-137.343 311.634z" p-id="1949" fill="#8a8a8a"></path></svg>